<?xml version="1.0" encoding="UTF-8" standalone="no"?>
<!DOCTYPE svg PUBLIC "-//W3C//DTD SVG 1.1//EN" "http://www.w3.org/Graphics/SVG/1.1/DTD/svg11.dtd">
<svg width="100%" height="100%" viewBox="0 0 114 51" version="1.1" xmlns="http://www.w3.org/2000/svg" xmlns:xlink="http://www.w3.org/1999/xlink" xml:space="preserve" xmlns:serif="http://www.serif.com/" style="fill-rule:evenodd;clip-rule:evenodd;stroke-linejoin:round;stroke-miterlimit:2;">
    <g transform="matrix(1,0,0,1,-526,-387)">
        <g transform="matrix(0.72311,0,0,0.72311,150.242,100.58)">
            <text x="521px" y="444px" style="font-family:'GFSDidot-Regular', 'GFS Didot';font-size:58.634px;">e<tspan x="545.04px 558.467px 586.084px 618.156px 633.636px 663.715px " y="444px 444px 444px 444px 444px 444px ">ight8.</tspan></text>
        </g>
        <g transform="matrix(0.498658,0,0,0.498658,262.764,191.489)">
            <g transform="matrix(20.9407,0,0,20.9407,642.029,483)">
                <path d="M0.771,-0.457L0.771,-0.429L0.745,-0.429C0.726,-0.429 0.711,-0.415 0.698,-0.386L0.543,-0L0.494,-0L0.38,-0.322L0.255,-0L0.204,-0L0.074,-0.407C0.07,-0.422 0.059,-0.429 0.04,-0.429L0.008,-0.429L0.008,-0.457L0.239,-0.457L0.239,-0.429L0.193,-0.429C0.176,-0.429 0.168,-0.422 0.168,-0.409C0.168,-0.405 0.168,-0.402 0.169,-0.4L0.255,-0.093L0.393,-0.468L0.426,-0.468L0.543,-0.093L0.648,-0.386C0.653,-0.397 0.655,-0.407 0.655,-0.414C0.655,-0.424 0.649,-0.429 0.638,-0.429L0.588,-0.429L0.588,-0.457L0.771,-0.457Z" style="fill-rule:nonzero;"/>
            </g>
            <g transform="matrix(20.9407,0,0,20.9407,657.273,483)">
                <path d="M0.431,-0.232L0.113,-0.232C0.113,-0.173 0.128,-0.128 0.157,-0.095C0.187,-0.06 0.231,-0.042 0.289,-0.042C0.32,-0.042 0.359,-0.057 0.408,-0.088L0.421,-0.078C0.374,-0.02 0.315,0.009 0.245,0.009C0.175,0.009 0.12,-0.012 0.08,-0.054C0.043,-0.095 0.024,-0.149 0.024,-0.216C0.024,-0.283 0.044,-0.341 0.085,-0.391C0.125,-0.44 0.179,-0.464 0.247,-0.464C0.303,-0.464 0.348,-0.445 0.382,-0.408C0.416,-0.37 0.433,-0.324 0.433,-0.269C0.433,-0.262 0.432,-0.249 0.431,-0.232ZM0.345,-0.268C0.345,-0.316 0.336,-0.355 0.319,-0.386C0.301,-0.417 0.274,-0.432 0.239,-0.432C0.204,-0.432 0.174,-0.418 0.15,-0.389C0.126,-0.36 0.114,-0.321 0.114,-0.27C0.239,-0.267 0.316,-0.266 0.345,-0.268Z" style="fill-rule:nonzero;"/>
            </g>
            <g transform="matrix(20.9407,0,0,20.9407,666.069,483)">
                <path d="M0.15,-0.703L0.15,-0.383C0.161,-0.402 0.177,-0.419 0.199,-0.435C0.236,-0.466 0.28,-0.481 0.332,-0.481C0.384,-0.481 0.426,-0.461 0.458,-0.42C0.49,-0.383 0.506,-0.336 0.506,-0.278C0.506,-0.205 0.48,-0.139 0.427,-0.08C0.374,-0.021 0.311,0.009 0.238,0.009C0.19,0.009 0.149,-0.003 0.116,-0.027L0.08,0.009L0.067,0.009L0.067,-0.64C0.066,-0.663 0.055,-0.675 0.032,-0.675L-0.015,-0.675L-0.015,-0.703L0.15,-0.703ZM0.273,-0.042C0.315,-0.045 0.35,-0.064 0.378,-0.101C0.405,-0.138 0.419,-0.183 0.419,-0.236C0.419,-0.289 0.408,-0.332 0.387,-0.363C0.362,-0.398 0.327,-0.416 0.282,-0.416C0.247,-0.416 0.216,-0.404 0.187,-0.38C0.162,-0.357 0.15,-0.337 0.15,-0.32L0.15,-0.096C0.15,-0.084 0.162,-0.072 0.187,-0.06C0.212,-0.047 0.24,-0.041 0.273,-0.042Z" style="fill-rule:nonzero;"/>
            </g>
            <g transform="matrix(20.9407,0,0,20.9407,680.002,483)">
                <path d="M0.48,-0.028L0.48,-0L0.32,-0L0.32,-0.082C0.261,-0.019 0.205,0.012 0.152,0.012C0.117,0.012 0.088,0.002 0.067,-0.019C0.044,-0.04 0.032,-0.069 0.032,-0.107C0.032,-0.16 0.052,-0.199 0.093,-0.225C0.124,-0.244 0.167,-0.258 0.222,-0.268L0.32,-0.285C0.321,-0.332 0.317,-0.367 0.308,-0.389C0.295,-0.42 0.272,-0.436 0.239,-0.436C0.182,-0.436 0.154,-0.417 0.153,-0.379C0.153,-0.372 0.157,-0.365 0.165,-0.356C0.172,-0.347 0.176,-0.342 0.176,-0.341C0.177,-0.331 0.172,-0.323 0.162,-0.316C0.151,-0.309 0.142,-0.307 0.133,-0.309C0.1,-0.309 0.083,-0.327 0.084,-0.365C0.085,-0.401 0.108,-0.429 0.153,-0.448C0.181,-0.459 0.211,-0.464 0.242,-0.464C0.295,-0.464 0.334,-0.449 0.36,-0.42C0.386,-0.388 0.399,-0.337 0.399,-0.268L0.399,-0.05C0.399,-0.043 0.401,-0.038 0.406,-0.034C0.411,-0.03 0.416,-0.028 0.422,-0.028L0.48,-0.028ZM0.32,-0.122L0.32,-0.252C0.262,-0.245 0.214,-0.234 0.177,-0.219C0.16,-0.212 0.145,-0.2 0.134,-0.182C0.123,-0.164 0.117,-0.144 0.117,-0.123C0.117,-0.102 0.125,-0.084 0.14,-0.069C0.155,-0.054 0.173,-0.047 0.194,-0.046C0.215,-0.045 0.237,-0.051 0.261,-0.067C0.284,-0.082 0.304,-0.1 0.32,-0.122Z" style="fill-rule:nonzero;"/>
            </g>
            <g transform="matrix(20.9407,0,0,20.9407,689.53,483)">
                <path d="M0.353,-0.464L0.514,-0.464L0.494,-0.411L0.379,-0.421C0.41,-0.392 0.426,-0.358 0.427,-0.32C0.428,-0.29 0.42,-0.261 0.403,-0.232C0.386,-0.203 0.363,-0.182 0.336,-0.168C0.301,-0.149 0.267,-0.139 0.233,-0.139C0.222,-0.139 0.213,-0.14 0.205,-0.143L0.177,-0.119C0.166,-0.108 0.16,-0.097 0.16,-0.088C0.16,-0.073 0.169,-0.062 0.186,-0.056C0.194,-0.053 0.21,-0.051 0.234,-0.05L0.39,-0.038C0.467,-0.033 0.505,0.004 0.505,0.073C0.505,0.126 0.481,0.172 0.434,0.211C0.386,0.25 0.322,0.27 0.241,0.27C0.181,0.27 0.131,0.256 0.091,0.228C0.051,0.201 0.031,0.168 0.031,0.129C0.031,0.089 0.045,0.059 0.072,0.039C0.09,0.024 0.114,0.014 0.143,0.01C0.101,-0.001 0.08,-0.02 0.08,-0.047C0.08,-0.068 0.092,-0.089 0.116,-0.111C0.125,-0.119 0.143,-0.131 0.169,-0.147C0.149,-0.148 0.125,-0.16 0.098,-0.185C0.071,-0.21 0.057,-0.241 0.056,-0.278C0.054,-0.336 0.074,-0.382 0.115,-0.415C0.156,-0.448 0.208,-0.464 0.269,-0.465C0.304,-0.465 0.332,-0.465 0.353,-0.464ZM0.242,-0.174C0.273,-0.174 0.299,-0.185 0.318,-0.207C0.337,-0.228 0.346,-0.258 0.345,-0.296C0.343,-0.333 0.335,-0.363 0.319,-0.385C0.3,-0.415 0.273,-0.43 0.239,-0.43C0.204,-0.43 0.178,-0.418 0.161,-0.394C0.144,-0.37 0.135,-0.339 0.135,-0.301C0.135,-0.262 0.145,-0.232 0.166,-0.209C0.186,-0.186 0.211,-0.174 0.242,-0.174ZM0.292,0.031L0.188,0.022C0.17,0.023 0.153,0.031 0.136,0.047C0.116,0.064 0.106,0.086 0.106,0.113C0.106,0.154 0.119,0.186 0.146,0.207C0.172,0.228 0.209,0.238 0.257,0.238C0.304,0.238 0.345,0.226 0.378,0.202C0.411,0.178 0.428,0.146 0.428,0.107C0.428,0.08 0.417,0.061 0.394,0.051C0.376,0.042 0.342,0.036 0.292,0.031Z" style="fill-rule:nonzero;"/>
            </g>
            <g transform="matrix(20.9407,0,0,20.9407,699.602,483)">
                <path d="M0.431,-0.232L0.113,-0.232C0.113,-0.173 0.128,-0.128 0.157,-0.095C0.187,-0.06 0.231,-0.042 0.289,-0.042C0.32,-0.042 0.359,-0.057 0.408,-0.088L0.421,-0.078C0.374,-0.02 0.315,0.009 0.245,0.009C0.175,0.009 0.12,-0.012 0.08,-0.054C0.043,-0.095 0.024,-0.149 0.024,-0.216C0.024,-0.283 0.044,-0.341 0.085,-0.391C0.125,-0.44 0.179,-0.464 0.247,-0.464C0.303,-0.464 0.348,-0.445 0.382,-0.408C0.416,-0.37 0.433,-0.324 0.433,-0.269C0.433,-0.262 0.432,-0.249 0.431,-0.232ZM0.345,-0.268C0.345,-0.316 0.336,-0.355 0.319,-0.386C0.301,-0.417 0.274,-0.432 0.239,-0.432C0.204,-0.432 0.174,-0.418 0.15,-0.389C0.126,-0.36 0.114,-0.321 0.114,-0.27C0.239,-0.267 0.316,-0.266 0.345,-0.268Z" style="fill-rule:nonzero;"/>
            </g>
            <g transform="matrix(20.9407,0,0,20.9407,708.397,483)">
                <path d="M0.572,-0.027L0.572,-0L0.328,-0L0.328,-0.027L0.387,-0.027C0.4,-0.027 0.407,-0.035 0.409,-0.05L0.409,-0.287C0.409,-0.326 0.399,-0.356 0.379,-0.378C0.359,-0.399 0.333,-0.41 0.302,-0.41C0.271,-0.41 0.242,-0.4 0.215,-0.379C0.19,-0.358 0.177,-0.338 0.177,-0.319L0.177,-0.05C0.179,-0.035 0.187,-0.027 0.2,-0.027L0.258,-0.027L0.258,-0L0.014,-0L0.014,-0.027L0.072,-0.027C0.085,-0.027 0.093,-0.035 0.095,-0.05L0.095,-0.396C0.094,-0.419 0.083,-0.43 0.061,-0.43L0.014,-0.43L0.014,-0.457L0.178,-0.457L0.178,-0.43C0.177,-0.422 0.177,-0.413 0.177,-0.402L0.177,-0.382C0.182,-0.395 0.196,-0.411 0.219,-0.43C0.253,-0.457 0.29,-0.47 0.33,-0.47C0.437,-0.47 0.491,-0.413 0.491,-0.299L0.491,-0.05C0.493,-0.035 0.501,-0.027 0.514,-0.027L0.572,-0.027Z" style="fill-rule:nonzero;"/>
            </g>
            <g transform="matrix(20.9407,0,0,20.9407,719.915,483)">
                <path d="M0.111,-0.254C0.111,-0.182 0.129,-0.128 0.164,-0.093C0.199,-0.058 0.242,-0.04 0.292,-0.04C0.326,-0.04 0.359,-0.049 0.392,-0.068L0.402,-0.054C0.362,-0.012 0.311,0.009 0.249,0.009C0.186,0.009 0.134,-0.01 0.092,-0.048C0.048,-0.09 0.026,-0.145 0.026,-0.214C0.026,-0.282 0.051,-0.342 0.1,-0.393C0.151,-0.443 0.213,-0.467 0.284,-0.464C0.325,-0.461 0.355,-0.451 0.374,-0.434C0.393,-0.416 0.402,-0.398 0.401,-0.38C0.4,-0.361 0.393,-0.347 0.382,-0.338C0.371,-0.329 0.359,-0.324 0.346,-0.324C0.333,-0.324 0.322,-0.327 0.311,-0.333C0.3,-0.338 0.296,-0.345 0.298,-0.352C0.3,-0.359 0.306,-0.366 0.317,-0.371C0.329,-0.378 0.334,-0.386 0.332,-0.394C0.33,-0.417 0.307,-0.428 0.263,-0.428C0.233,-0.428 0.202,-0.415 0.171,-0.389C0.131,-0.356 0.111,-0.311 0.111,-0.254Z" style="fill-rule:nonzero;"/>
            </g>
            <g transform="matrix(20.9407,0,0,20.9407,728.019,483)">
                <path d="M0.069,-0.407C0.063,-0.422 0.051,-0.43 0.034,-0.43L0.003,-0.43L0.003,-0.457L0.234,-0.457L0.234,-0.43L0.187,-0.43C0.17,-0.43 0.161,-0.424 0.161,-0.411C0.161,-0.408 0.162,-0.404 0.164,-0.4L0.283,-0.09L0.401,-0.387C0.405,-0.397 0.407,-0.406 0.407,-0.414C0.407,-0.425 0.401,-0.43 0.39,-0.43L0.34,-0.43L0.34,-0.457L0.522,-0.457L0.522,-0.43L0.496,-0.43C0.477,-0.43 0.462,-0.416 0.45,-0.387L0.283,-0.001C0.273,0.031 0.263,0.06 0.252,0.086C0.225,0.149 0.201,0.191 0.18,0.211C0.159,0.23 0.142,0.242 0.131,0.246C0.12,0.25 0.107,0.252 0.094,0.252C0.08,0.252 0.066,0.249 0.054,0.242C0.041,0.235 0.036,0.224 0.04,0.207C0.043,0.184 0.059,0.173 0.088,0.175C0.095,0.178 0.105,0.18 0.117,0.183C0.129,0.185 0.138,0.185 0.145,0.183C0.151,0.18 0.161,0.172 0.174,0.159C0.193,0.136 0.206,0.115 0.213,0.095C0.224,0.071 0.233,0.047 0.239,0.022C0.238,0.017 0.236,0.009 0.233,-0.002C0.23,-0.012 0.227,-0.023 0.224,-0.035C0.221,-0.047 0.169,-0.171 0.069,-0.407Z" style="fill-rule:nonzero;"/>
            </g>
        </g>
    </g>
</svg>
